<?xml version="1.0" standalone="no"?>
<!DOCTYPE svg PUBLIC "-//W3C//DTD SVG 20010904//EN"
 "http://www.w3.org/TR/2001/REC-SVG-20010904/DTD/svg10.dtd">
<svg version="1.0" xmlns="http://www.w3.org/2000/svg"
 width="3138.000000pt" height="3138.000000pt" viewBox="0 0 3138.000000 3138.000000"
 preserveAspectRatio="xMidYMid meet">
<metadata>
Created by potrace 1.11, written by Peter Selinger 2001-2013
</metadata>
<g transform="translate(0.000000,3138.000000) scale(0.100000,-0.100000)"
fill="#000000" stroke="none">
<path d="M15154 31370 c-2962 -115 -5741 -1010 -8169 -2629 -1778 -1187 -3291
-2719 -4455 -4511 -1176 -1811 -1967 -3855 -2319 -5990 -278 -1685 -278 -3415
0 -5100 481 -2915 1772 -5632 3731 -7847 310 -351 767 -818 1098 -1123 2182
-2010 4857 -3354 7763 -3899 1669 -314 3395 -353 5077 -115 1674 236 3311 745
4815 1497 2173 1085 4055 2650 5517 4587 1844 2443 2928 5361 3133 8430 74
1114 22 2294 -151 3415 -584 3784 -2536 7228 -5485 9677 -744 618 -1524 1152
-2384 1634 -241 134 -834 436 -1070 544 -1756 801 -3558 1263 -5465 1400 -444
32 -1224 46 -1636 30z m1091 -17851 c39 -11 114 -39 168 -60 53 -22 108 -39
121 -39 27 0 66 42 66 71 0 14 7 19 30 19 l30 0 0 -285 0 -285 -30 0 c-27 0
-30 3 -30 33 0 101 -65 242 -155 333 -113 114 -240 167 -405 168 -170 0 -278
-42 -378 -149 -137 -147 -202 -368 -202 -691 0 -337 64 -558 200 -694 103
-102 227 -150 390 -150 161 0 286 42 382 129 72 64 98 124 98 226 0 44 -5 97
-10 117 -23 81 -96 120 -255 135 -76 8 -80 9 -83 34 l-3 26 401 -1 400 0 0
-27 c0 -25 -2 -26 -74 -32 -131 -10 -172 -49 -188 -177 -12 -100 1 -171 48
-270 l35 -74 -23 -18 c-22 -17 -24 -17 -43 5 -77 86 -111 87 -236 6 -191 -123
-271 -149 -464 -149 -233 0 -423 77 -576 232 -118 119 -194 267 -231 448 -27
129 -21 375 11 495 106 399 450 667 836 650 64 -2 125 -12 170 -26z m-5525
-28 c0 -26 -3 -28 -75 -39 -101 -16 -140 -34 -162 -74 -17 -31 -18 -78 -21
-717 -2 -469 1 -701 8 -737 18 -85 61 -108 230 -127 8 -1 16 -14 18 -30 l3
-27 -371 0 -371 0 3 27 c3 26 6 28 92 40 102 14 131 30 154 81 15 33 17 105
20 677 2 352 0 673 -3 712 -7 80 -32 129 -77 151 -15 7 -63 18 -107 24 -78 12
-81 13 -81 39 l0 27 370 0 370 0 0 -27z m702 11 c4 -4 136 -320 293 -702 158
-382 291 -702 295 -710 10 -17 -12 -63 379 796 l283 621 156 6 c87 4 199 7
250 7 l92 0 0 -28 c0 -28 -2 -29 -75 -40 -101 -16 -140 -34 -162 -74 -17 -31
-18 -78 -21 -718 -2 -483 0 -700 8 -737 18 -84 62 -108 230 -126 8 -1 16 -14
18 -30 l3 -27 -371 0 -371 0 3 27 c3 26 6 28 92 40 102 14 131 30 154 81 15
33 17 110 20 752 2 421 -1 711 -6 705 -5 -6 -173 -369 -373 -807 -317 -695
-367 -798 -385 -798 -25 0 9 -78 -389 905 -147 363 -271 667 -276 675 -5 9 -8
-281 -6 -695 2 -657 3 -712 20 -742 23 -44 66 -64 162 -78 76 -10 80 -12 83
-38 l3 -27 -311 0 -311 0 3 27 c3 26 6 28 92 40 102 14 131 30 154 81 15 33
17 105 20 677 2 352 0 673 -3 712 -7 80 -32 129 -77 151 -15 7 -63 18 -107 24
-80 12 -81 12 -81 42 l0 29 252 -7 c139 -4 256 -10 260 -14z m6398 -11 c0 -25
-3 -27 -74 -38 -101 -16 -141 -35 -163 -75 -17 -31 -18 -78 -21 -708 -2 -371
0 -699 3 -728 11 -92 53 -123 192 -140 54 -6 58 -9 61 -34 l3 -28 -371 0 -371
0 3 27 c3 26 7 28 87 39 92 13 123 26 146 60 32 49 36 153 33 810 -3 626 -4
650 -23 689 -26 52 -65 73 -164 87 -79 12 -81 13 -81 39 l0 27 370 0 370 0 0
-27z m627 21 l52 -7 308 -410 c170 -225 386 -511 481 -634 l173 -223 -3 553
c-3 538 -4 555 -24 589 -26 45 -54 58 -153 72 -78 12 -81 13 -81 39 l0 27 310
0 310 0 0 -27 c0 -26 -3 -28 -75 -39 -101 -16 -140 -34 -162 -74 -17 -31 -18
-82 -21 -835 l-3 -803 -34 0 c-32 0 -37 5 -76 73 -144 247 -574 842 -893 1236
-78 95 -146 179 -152 187 -6 8 -14 14 -18 14 -4 0 -6 -296 -4 -657 3 -563 6
-664 19 -698 25 -64 48 -75 212 -100 32 -5 37 -9 37 -33 l0 -27 -315 0 -315 0
0 28 c0 15 6 27 13 27 43 2 173 31 193 45 60 39 59 22 62 811 l3 722 -41 32
c-55 43 -102 59 -177 60 l-63 0 0 30 0 30 193 -1 c105 -1 215 -4 244 -7z
m2862 -8 c2 -2 8 -75 12 -161 5 -87 11 -175 15 -195 6 -37 5 -38 -24 -38 -26
0 -31 4 -37 36 -28 150 -80 229 -172 264 -66 25 -316 43 -523 38 l-125 -3 -3
-367 -2 -368 161 0 c181 0 214 9 249 64 23 38 50 144 50 199 0 34 2 37 29 37
l29 0 0 -350 0 -350 -27 0 c-28 0 -28 0 -34 83 -7 104 -28 165 -73 208 l-35
34 -175 3 -174 3 0 -338 c0 -406 4 -427 85 -472 45 -24 515 -24 595 1 65 20
119 71 149 138 21 49 51 182 51 229 0 46 10 61 39 61 l26 0 -7 -147 c-4 -82
-10 -199 -14 -260 l-6 -113 -695 0 -694 0 3 27 c2 16 10 29 18 30 169 19 212
42 230 127 7 36 10 268 8 737 -3 639 -4 686 -21 717 -22 41 -67 61 -164 75
-70 10 -73 11 -73 37 l0 28 663 -6 c364 -2 664 -6 666 -8z m-6740 -739 c164
-407 310 -763 324 -792 54 -106 119 -156 219 -171 48 -6 53 -10 56 -35 l3 -27
-350 0 -351 0 0 29 c0 27 3 28 53 34 115 12 165 58 153 141 -4 22 -41 129 -84
236 l-78 195 -352 3 -353 2 -28 -62 c-72 -162 -145 -357 -149 -399 -4 -40 -1
-51 20 -72 26 -25 101 -47 163 -47 32 0 35 -2 35 -30 l0 -30 -306 0 -305 0 3
27 c3 24 9 28 63 39 136 28 197 77 259 208 18 39 165 392 326 784 l294 713 44
-3 44 -3 297 -740z"/>
<path d="M14152 13215 c-25 -54 -312 -753 -312 -759 0 -3 144 -6 320 -6 176 0
320 3 320 7 0 11 -301 767 -309 776 -4 4 -13 -4 -19 -18z"/>
</g>
</svg>
