<?xml version="1.0" standalone="no"?>
<!DOCTYPE svg PUBLIC "-//W3C//DTD SVG 20010904//EN"
 "http://www.w3.org/TR/2001/REC-SVG-20010904/DTD/svg10.dtd">
<svg version="1.0" xmlns="http://www.w3.org/2000/svg"
 width="140.000000pt" height="140.000000pt" viewBox="0 0 140.000000 140.000000"
 preserveAspectRatio="xMidYMid meet">
<metadata>
Created by potrace 1.14, written by Peter Selinger 2001-2017
</metadata>
<g transform="translate(0.000000,140.000000) scale(0.100000,-0.100000)"
fill="#000000" stroke="none">
<path d="M540 1033 c-84 -147 -161 -283 -172 -301 l-20 -32 89 44 c48 24 111
53 138 65 47 20 54 27 89 98 l37 76 44 -71 c86 -138 108 -182 93 -186 -7 -2
-35 -10 -63 -17 -53 -13 -203 -68 -264 -96 -85 -40 -207 -123 -289 -198 -86
-78 -222 -272 -222 -315 0 -19 7 -20 93 -20 l92 0 52 68 c43 57 139 154 196
199 43 34 163 106 219 132 134 61 246 85 396 84 l82 -1 -18 32 c-11 17 -36 60
-57 96 -21 36 -57 97 -80 135 -23 39 -75 126 -115 195 -77 132 -161 273 -165
278 -1 1 -71 -118 -155 -265z"/>
<path d="M1048 472 c-27 -2 -48 -6 -48 -9 0 -3 51 -90 113 -194 l112 -188 83
-1 c45 0 82 2 82 4 0 6 -221 371 -231 381 -10 10 -35 12 -111 7z"/>
<path d="M745 409 c-27 -11 -54 -24 -59 -29 -6 -6 10 -40 39 -87 27 -43 66
-108 88 -145 l39 -68 85 0 85 0 -20 33 c-11 17 -58 95 -105 172 -46 76 -88
140 -93 141 -5 2 -31 -6 -59 -17z"/>
<path d="M495 270 c-5 -5 -28 -25 -49 -44 l-39 -34 33 -56 34 -56 83 0 c46 0
83 2 83 4 0 10 -118 190 -126 192 -5 2 -13 -1 -19 -6z"/>
</g>
</svg>
